<svg width="16" height="16" viewBox="0 0 16 16" fill="none" xmlns="http://www.w3.org/2000/svg">
<path d="M14.5306 5.03064L6.5306 13.0306C6.46092 13.1006 6.37813 13.156 6.28696 13.1939C6.1958 13.2318 6.09806 13.2512 5.99935 13.2512C5.90064 13.2512 5.8029 13.2318 5.71173 13.1939C5.62057 13.156 5.53778 13.1006 5.4681 13.0306L1.9681 9.53065C1.89833 9.46088 1.84299 9.37806 1.80524 9.28691C1.76748 9.19575 1.74805 9.09806 1.74805 8.9994C1.74805 8.90073 1.76748 8.80304 1.80524 8.71189C1.84299 8.62073 1.89833 8.53791 1.9681 8.46815C2.03786 8.39838 2.12069 8.34304 2.21184 8.30528C2.30299 8.26753 2.40069 8.24809 2.49935 8.24809C2.59801 8.24809 2.69571 8.26753 2.78686 8.30528C2.87801 8.34304 2.96083 8.39838 3.0306 8.46815L5.99997 11.4375L13.4693 3.96939C13.6102 3.8285 13.8013 3.74934 14.0006 3.74934C14.1999 3.74934 14.391 3.8285 14.5318 3.96939C14.6727 4.11029 14.7519 4.30139 14.7519 4.50065C14.7519 4.6999 14.6727 4.891 14.5318 5.0319L14.5306 5.03064Z" fill="#4F46E5"/>
</svg>
