<svg width="20" height="20" viewBox="0 0 20 20" fill="none" xmlns="http://www.w3.org/2000/svg">
<path d="M13.4602 5.38284C12.8341 4.02425 11.7627 2.92032 10.4235 2.25393C9.08421 1.58754 7.55748 1.39869 6.09622 1.71868C4.63495 2.03866 3.32686 2.84827 2.38866 4.01338C1.45047 5.17848 0.938469 6.62914 0.9375 8.12503V13.125C0.9375 13.5394 1.10212 13.9369 1.39515 14.2299C1.68817 14.5229 2.0856 14.6875 2.5 14.6875H6.57031C7.10393 15.8086 7.94399 16.7557 8.99333 17.4193C10.0427 18.0829 11.2584 18.4359 12.5 18.4375H17.5C17.9144 18.4375 18.3118 18.2729 18.6049 17.9799C18.8979 17.6869 19.0625 17.2894 19.0625 16.875V11.875C19.0626 10.3009 18.4968 8.77911 17.4684 7.58733C16.4399 6.39555 15.0174 5.61316 13.4602 5.38284ZM2.8125 8.12503C2.8125 7.19793 3.08742 6.29165 3.60249 5.52079C4.11756 4.74994 4.84964 4.14913 5.70617 3.79434C6.5627 3.43956 7.5052 3.34673 8.41449 3.5276C9.32377 3.70847 10.159 4.15491 10.8146 4.81047C11.4701 5.46602 11.9166 6.30126 12.0974 7.21054C12.2783 8.11983 12.1855 9.06233 11.8307 9.91886C11.4759 10.7754 10.8751 11.5075 10.1042 12.0225C9.33338 12.5376 8.4271 12.8125 7.5 12.8125H2.8125V8.12503ZM17.1875 16.5625H12.5C11.75 16.5617 11.0112 16.3813 10.3452 16.0365C9.67923 15.6916 9.10546 15.1924 8.67188 14.5805C10.3007 14.2863 11.758 13.3869 12.7513 12.0629C13.7446 10.739 14.2004 9.08831 14.0273 7.44222C14.95 7.7602 15.7504 8.35821 16.3169 9.15285C16.8834 9.94749 17.1877 10.8991 17.1875 11.875V16.5625Z" fill="#475569"/>
</svg>
