<svg width="20" height="20" viewBox="0 0 20 20" fill="none" xmlns="http://www.w3.org/2000/svg">
<path d="M18.7884 8.0875L12.5384 1.8375C12.4073 1.70629 12.2402 1.6169 12.0584 1.58064C11.8765 1.54438 11.6879 1.56288 11.5166 1.6338C11.3452 1.70472 11.1987 1.82488 11.0957 1.97906C10.9926 2.13325 10.9376 2.31454 10.9376 2.5V5.37032C8.92507 5.61407 6.74538 6.61172 4.94147 8.14141C2.66335 10.0742 1.2446 12.5703 0.946161 15.1727C0.915928 15.4338 0.968798 15.6978 1.09725 15.9272C1.22571 16.1566 1.42321 16.3396 1.66167 16.4503C1.90013 16.5609 2.16742 16.5936 2.42551 16.5436C2.68361 16.4936 2.91937 16.3636 3.09929 16.1719C3.91647 15.3016 6.77116 12.5984 10.9376 12.2328V15C10.9377 15.1853 10.9928 15.3664 11.0958 15.5204C11.1989 15.6744 11.3452 15.7945 11.5164 15.8654C11.6876 15.9363 11.876 15.9548 12.0577 15.9187C12.2395 15.8826 12.4065 15.7934 12.5376 15.6625L18.7876 9.4125C18.9632 9.23682 19.062 8.9986 19.0621 8.75016C19.0623 8.50173 18.9638 8.26339 18.7884 8.0875ZM12.8126 12.7344V11.25C12.8126 11.0014 12.7138 10.7629 12.538 10.5871C12.3622 10.4113 12.1237 10.3125 11.8751 10.3125C8.04694 10.3125 5.11179 11.9969 3.29772 13.4461C3.85476 12.0273 4.83132 10.6945 6.15476 9.57188C7.91413 8.07891 10.0524 7.1875 11.8751 7.1875C12.1237 7.1875 12.3622 7.08873 12.538 6.91292C12.7138 6.7371 12.8126 6.49864 12.8126 6.25V4.76563L16.7969 8.75L12.8126 12.7344Z" fill="#94A3B8"/>
</svg>
